<svg width="22" height="20" viewBox="0 0 22 20" fill="none" xmlns="http://www.w3.org/2000/svg">
<path d="M18.4616 1.99445C15.78 0.349564 13.4395 1.01243 12.0335 2.06831C11.457 2.50124 11.1688 2.71771 10.9992 2.71771C10.8296 2.71771 10.5414 2.50124 9.96489 2.06831C8.55889 1.01243 6.21841 0.349564 3.53683 1.99445C0.0175479 4.15318 -0.778781 11.2749 7.33883 17.2833C8.88498 18.4277 9.65806 18.9999 10.9992 18.9999C12.3404 18.9999 13.1134 18.4277 14.6596 17.2833C22.7772 11.2749 21.9809 4.15318 18.4616 1.99445Z" stroke="#AAFB4F" stroke-width="2" stroke-linecap="round"/>
<path d="M14.9991 11.0007H13.9991C13.5439 11.0007 13.0647 11.036 12.656 10.7221C12.5003 10.6024 12.3969 10.4371 12.1902 10.1063L10.4992 7.00081L7.4993 12.0007L5.94271 9.83279C5.68656 9.52541 5.43682 9.21378 5.09781 9.09045C4.85125 9.00076 4.56729 9.00076 3.99938 9.00076H1.99943" stroke="#AAFB4F" stroke-width="2" stroke-linecap="round" stroke-linejoin="round"/>
</svg>
