<svg width="21" height="21" viewBox="0 0 21 21" fill="none" xmlns="http://www.w3.org/2000/svg">
<path d="M5.5 16.5L5.5 14.5" stroke="#AAFB4F" stroke-width="2" stroke-linecap="round"/>
<path d="M10.5 16.5L10.5 13.5" stroke="#AAFB4F" stroke-width="2" stroke-linecap="round"/>
<path d="M15.5 16.5L15.5 11.5" stroke="#AAFB4F" stroke-width="2" stroke-linecap="round"/>
<path d="M4.5 9C3.94772 9 3.5 9.44772 3.5 10C3.5 10.5523 3.94772 11 4.5 11V9ZM15.3682 5.49614C15.6423 5.01662 15.4757 4.40577 14.9961 4.13176C14.5166 3.85775 13.9058 4.02434 13.6318 4.50386L15.3682 5.49614ZM12.3372 3.80811C11.7923 3.898 11.4234 4.41261 11.5133 4.95753C11.6032 5.50245 12.1178 5.87133 12.6628 5.78144L12.3372 3.80811ZM13.7676 4.58568L13.6049 3.59901L13.6049 3.59901L13.7676 4.58568ZM15.1819 5.38953L14.2205 5.66494L15.1819 5.38953ZM14.5387 6.77541C14.6908 7.30634 15.2445 7.61343 15.7754 7.46133C16.3063 7.30922 16.6134 6.75551 16.4613 6.22459L14.5387 6.77541ZM14.7741 4.57154L15.2683 3.70217V3.70217L14.7741 4.57154ZM4.5 10V11C9.23222 11 13.1352 9.40396 15.3682 5.49614L14.5 5L13.6318 4.50386C11.8648 7.59604 8.76778 9 4.5 9V10ZM12.5 4.79478L12.6628 5.78144L13.9304 5.57235L13.7676 4.58568L13.6049 3.59901L12.3372 3.80811L12.5 4.79478ZM15.1819 5.38953L14.2205 5.66494L14.5387 6.77541L15.5 6.5L16.4613 6.22459L16.1432 5.11412L15.1819 5.38953ZM13.7676 4.58568L13.9304 5.57235C14.0669 5.54983 14.1714 5.53264 14.2611 5.5199C14.3511 5.50713 14.4051 5.50199 14.4387 5.50046C14.5015 5.49759 14.4056 5.51233 14.28 5.44091L14.7741 4.57154L15.2683 3.70217C14.9355 3.51303 14.6029 3.49088 14.3475 3.50254C14.1155 3.51313 13.8472 3.55903 13.6049 3.59901L13.7676 4.58568ZM15.1819 5.38953L16.1432 5.11412C16.0845 4.90934 16.0132 4.65138 15.917 4.43819C15.8031 4.18608 15.6146 3.89902 15.2683 3.70217L14.7741 4.57154L14.28 5.44091C14.2223 5.40814 14.1714 5.3641 14.133 5.31727C14.0991 5.27586 14.0885 5.24865 14.0941 5.26103C14.1005 5.27526 14.1142 5.30979 14.1375 5.38333C14.1608 5.45674 14.186 5.54432 14.2205 5.66494L15.1819 5.38953Z" fill="#AAFB4F"/>
<path d="M1 10.5C1 6.02166 1 3.78249 2.39124 2.39124C3.78249 1 6.02166 1 10.5 1C14.9783 1 17.2175 1 18.6088 2.39124C20 3.78249 20 6.02166 20 10.5C20 14.9783 20 17.2175 18.6088 18.6088C17.2175 20 14.9783 20 10.5 20C6.02166 20 3.78249 20 2.39124 18.6088C1 17.2175 1 14.9783 1 10.5Z" stroke="#AAFB4F" stroke-width="2"/>
</svg>
