<svg width="22" height="22" viewBox="0 0 22 22" fill="none" xmlns="http://www.w3.org/2000/svg">
<path d="M3.22222 20.9948V17.4451C3.22222 16.1737 2.88927 15.5128 2.23482 14.4078C1.4503 13.0833 1 11.5375 1 9.88658C1 4.97866 4.97969 1 9.88889 1C14.7981 1 18.7778 4.97866 18.7778 9.88658C18.7778 10.4663 18.7778 10.7562 18.802 10.9187C18.8598 11.3072 19.0411 11.6414 19.2194 11.9873L21 15.4407L19.6006 16.1402C19.195 16.3429 18.9923 16.4443 18.851 16.6314C18.7097 16.8184 18.67 17.0296 18.5904 17.4519L18.5826 17.4931C18.4004 18.4606 18.1993 19.5286 17.6329 20.2024C17.4329 20.4403 17.1853 20.6336 16.9059 20.7699C16.4447 20.9948 15.8777 20.9948 14.7437 20.9948C14.219 20.9948 13.6928 21.0069 13.1682 20.9942C11.9247 20.9639 11 19.9184 11 18.7044" stroke="#AAFB4F" stroke-width="2" stroke-linecap="round" stroke-linejoin="round"/>
<path d="M13.388 9.53153C12.9617 9.53153 12.5729 9.37019 12.2784 9.10485M13.388 9.53153C13.388 10.6774 12.7241 11.7658 11.4461 11.7658C10.1681 11.7658 9.50426 12.8541 9.50426 14M13.388 9.53153C15.5373 9.53153 15.5373 6.18017 13.388 6.18017C13.1927 6.18017 13.0053 6.21403 12.8312 6.27624C12.9362 3.77819 9.3349 3.1 8.51923 5.44018M9.50426 7.29729C9.50426 6.52323 9.11326 5.8411 8.51923 5.44018M8.51923 5.44018C6.66742 4.19034 4.19883 6.4331 5.37324 8.43277C3.40226 8.72827 3.61299 11.7658 5.6205 11.7658C6.18344 11.7658 6.68111 11.4844 6.98234 11.0538" stroke="#AAFB4F" stroke-width="2" stroke-linecap="round" stroke-linejoin="round"/>
</svg>
