<svg width="15" height="14" viewBox="0 0 15 14" fill="none" xmlns="http://www.w3.org/2000/svg">
<path d="M7.5 13.2563C7.325 13.2563 7.147 13.225 6.966 13.1625C6.785 13.1 6.6255 13 6.4875 12.8625L5.19375 11.6813C3.86875 10.4688 2.67175 9.26575 1.60275 8.07225C0.53375 6.87875 -0.000499649 5.563 3.50631e-07 4.125C3.50631e-07 2.95 0.39375 1.96875 1.18125 1.18125C1.96875 0.39375 2.95 0 4.125 0C4.7875 0 5.4125 0.1405 6 0.4215C6.5875 0.7025 7.0875 1.087 7.5 1.575C7.9125 1.0875 8.4125 0.70325 9 0.42225C9.5875 0.14125 10.2125 0.0005 10.875 0C12.05 0 13.0312 0.39375 13.8187 1.18125C14.6062 1.96875 15 2.95 15 4.125C15 5.5625 14.4688 6.88125 13.4062 8.08125C12.3438 9.28125 11.1375 10.4875 9.7875 11.7L8.5125 12.8625C8.375 13 8.21575 13.1 8.03475 13.1625C7.85375 13.225 7.6755 13.2563 7.5 13.2563ZM6.7875 3.075C6.425 2.5625 6.0375 2.17175 5.625 1.90275C5.2125 1.63375 4.7125 1.4995 4.125 1.5C3.375 1.5 2.75 1.75 2.25 2.25C1.75 2.75 1.5 3.375 1.5 4.125C1.5 4.775 1.73125 5.46575 2.19375 6.19725C2.65625 6.92875 3.2095 7.638 3.8535 8.325C4.4975 9.012 5.16 9.65575 5.841 10.2563C6.522 10.8568 7.075 11.3505 7.5 11.7375C7.925 11.35 8.47825 10.8563 9.15975 10.2563C9.84125 9.65625 10.5038 9.0125 11.1473 8.325C11.7908 7.6375 12.3438 6.92825 12.8063 6.19725C13.2688 5.46625 13.5 4.7755 13.5 4.125C13.5 3.375 13.25 2.75 12.75 2.25C12.25 1.75 11.625 1.5 10.875 1.5C10.2875 1.5 9.7875 1.6345 9.375 1.9035C8.9625 2.1725 8.575 2.563 8.2125 3.075C8.125 3.2 8.01875 3.29375 7.89375 3.35625C7.76875 3.41875 7.6375 3.45 7.5 3.45C7.3625 3.45 7.23125 3.41875 7.10625 3.35625C6.98125 3.29375 6.875 3.2 6.7875 3.075Z" fill="#AAFB4F"/>
</svg>
